<?xml version="1.0" standalone="no"?>
<!DOCTYPE svg PUBLIC "-//W3C//DTD SVG 20010904//EN"
 "http://www.w3.org/TR/2001/REC-SVG-20010904/DTD/svg10.dtd">
<svg version="1.0" xmlns="http://www.w3.org/2000/svg"
 width="930.000000pt" height="930.000000pt" viewBox="0 0 930.000000 930.000000"
 preserveAspectRatio="xMidYMid meet">
<metadata>
Created by potrace 1.14, written by Peter Selinger 2001-2017
</metadata>
<g transform="translate(0.000000,930.000000) scale(0.100000,-0.100000)"
fill="#000000" stroke="none">
<path d="M10 8286 c0 -4 60 -97 355 -551 65 -100 299 -462 354 -548 31 -48 88
-136 126 -195 39 -60 103 -160 144 -223 40 -63 106 -164 146 -224 39 -61 78
-121 85 -135 7 -13 17 -29 22 -34 5 -6 35 -51 67 -101 73 -113 489 -757 546
-845 24 -36 91 -139 149 -230 132 -205 111 -173 208 -322 46 -70 114 -176 152
-235 39 -60 95 -147 126 -194 32 -47 59 -90 61 -95 2 -5 31 -49 63 -99 122
-186 254 -390 327 -504 18 -30 79 -124 134 -208 55 -84 127 -195 159 -246 33
-50 85 -131 117 -178 31 -47 58 -90 60 -95 2 -5 38 -61 80 -124 42 -63 87
-133 100 -155 l25 -40 -3 -848 c-3 -682 -1 -847 9 -841 11 6 58 45 158 131 14
11 122 101 240 199 118 98 226 189 240 201 14 13 57 49 97 81 l72 57 1 2121 0
2122 -403 1 -404 1 -1 -143 c0 -78 -1 -452 -1 -831 l-1 -689 -114 174 c-63 96
-119 179 -125 186 -6 7 -11 14 -11 16 0 3 -44 71 -98 153 -55 82 -170 257
-257 389 -87 132 -233 355 -326 495 -92 140 -215 327 -273 415 -57 88 -109
165 -115 172 -6 7 -11 14 -11 17 0 2 -62 98 -138 213 -76 114 -181 273 -234
353 -52 80 -179 272 -282 428 -102 156 -186 286 -186 290 0 4 91 6 202 5 1046
-8 1679 -11 1677 -8 -3 3 -110 26 -184 40 -11 3 -40 9 -65 15 -86 21 -372 84
-500 110 -25 5 -54 12 -65 14 -76 18 -424 94 -469 102 -16 3 -32 7 -36 9 -4 2
-21 7 -38 10 -18 3 -65 12 -105 21 -39 9 -90 20 -112 24 -22 5 -182 40 -355
79 -173 38 -326 72 -340 74 -14 3 -43 10 -65 15 -22 6 -53 13 -70 15 -16 3
-52 10 -80 17 -27 6 -59 13 -70 16 -11 2 -72 15 -135 30 -63 14 -126 28 -140
30 -14 3 -126 27 -249 54 -225 50 -241 53 -241 46z"/>
<path d="M9180 8269 c-47 -10 -97 -21 -112 -24 -16 -3 -58 -12 -95 -21 -79
-18 -97 -22 -138 -29 -16 -3 -38 -8 -47 -11 -9 -3 -25 -7 -35 -9 -10 -2 -72
-15 -138 -30 -118 -26 -140 -31 -180 -39 -11 -2 -94 -21 -185 -40 -148 -33
-247 -54 -530 -116 -47 -11 -128 -28 -180 -40 -52 -11 -158 -34 -235 -51 -77
-17 -149 -33 -160 -35 -11 -3 -31 -7 -45 -10 -14 -3 -124 -27 -245 -54 -121
-27 -231 -51 -245 -54 -14 -2 -47 -10 -75 -16 -27 -6 -61 -14 -75 -16 -61 -12
-485 -106 -488 -109 -3 -3 1039 2 1666 8 116 1 212 -1 212 -5 0 -4 -93 -148
-207 -320 -113 -172 -252 -383 -308 -468 -56 -85 -173 -263 -260 -395 -87
-132 -204 -310 -260 -395 -56 -85 -176 -267 -267 -405 -290 -441 -473 -718
-523 -795 -27 -41 -115 -176 -197 -299 l-148 -223 -1 693 c0 382 -1 755 -1
831 l-1 136 -404 1 -403 0 1 -2122 0 -2122 176 -145 c96 -80 181 -150 187
-155 6 -6 106 -89 221 -185 116 -96 212 -178 213 -182 19 -43 22 85 19 841
l-3 848 98 149 c53 82 103 159 110 172 7 12 159 248 338 524 179 276 351 542
383 592 32 50 84 130 115 178 31 48 106 163 165 255 60 93 140 215 178 273 38
58 78 121 89 140 11 19 80 127 154 240 74 113 181 277 237 365 57 88 140 216
185 285 45 69 177 274 294 455 117 182 248 384 291 450 43 66 147 227 231 357
240 372 375 581 474 733 50 77 112 174 139 215 26 41 65 101 86 134 22 32 39
60 39 62 0 6 -19 3 -110 -17z"/>
<path d="M3623 6939 l0 -619 403 0 404 0 0 619 0 618 -403 0 -404 0 0 -618z"/>
<path d="M4870 6939 l0 -619 404 0 403 0 -1 618 -1 617 -402 1 -403 1 0 -618z"/>
</g>
</svg>
